<?xml version="1.0" encoding="UTF-8"?>
<svg width="91px" height="40px" viewBox="0 0 91 40" version="1.1" xmlns="http://www.w3.org/2000/svg" xmlns:xlink="http://www.w3.org/1999/xlink">
    <!-- Generator: Sketch 51.3 (57544) - http://www.bohemiancoding.com/sketch -->
    <title>Group 5</title>
    <desc>Created with Sketch.</desc>
    <defs></defs>
    <g id="Desktop" stroke="none" stroke-width="1" fill="none" fill-rule="evenodd">
        <g id="Why-WSB" transform="translate(-204.000000, -17.000000)">
            <g id="Group-5" transform="translate(204.000000, 17.000000)">
                <polygon id="Fill-1" fill="#FAA83F" points="74.9069069 0 66.1538462 8.77720056 82.0163789 8.77720056 82.0163789 24.6153846 90.7692308 15.8338028 90.7692308 8.77448833 90.7688129 8.77448833 90.7688129 0"></polygon>
                <polygon id="Fill-2" fill="#4D4D4F" points="15.004236 17.6923077 8.63927242 36.4758255 2.27348186 17.7760313 0 17.7760313 7.72954887 39.2307692 9.46567357 39.2307692 15.7899063 20.98968 22.072788 39.2307692 23.8087059 39.2307692 31.5384615 17.7760313 29.3476818 17.7760313 22.9823048 36.4758255 16.6165142 17.6923077"></polygon>
                <path d="M33.1040477,36.7837754 L34.3082477,35.1334037 C36.6331554,36.9533211 39.2079169,37.9684786 41.9066708,37.9684786 C44.7715785,37.9684786 47.0138246,36.360652 47.0138246,33.8640336 L47.0138246,33.7793665 C47.0138246,31.2406262 44.3564015,30.3095008 41.4082092,29.463254 C37.9617631,28.4474615 34.1420938,27.3895472 34.1420938,23.5386799 L34.1420938,23.4540129 C34.1420938,19.9841471 37.0070015,17.4875287 41.11744,17.4875287 C43.6504554,17.4875287 46.5155708,18.4184424 48.6334092,19.8573583 L47.5534092,21.5919737 C45.6019323,20.2804817 43.2766092,19.4335999 41.0343631,19.4335999 C38.1281246,19.4335999 36.2179785,21.0420614 36.2179785,23.2004352 L36.2179785,23.2844672 C36.2179785,25.6970537 39.0828862,26.5854223 42.1141554,27.4744259 C45.5188554,28.4474615 49.0897092,29.7168317 49.0897092,33.5255772 L49.0897092,33.6104559 C49.0897092,37.4604765 45.8513708,39.9151848 41.7822631,39.9151848 C38.7096631,39.9151848 35.3462938,38.6458147 33.1040477,36.7837754" id="Fill-3" fill="#4D4D4F"></path>
                <path d="M72.34186,28.7858967 L72.34186,28.7012297 C72.34186,23.0308684 68.4802369,19.3916686 64.0376985,19.3916686 C59.6362831,19.3916686 55.4008138,23.1576572 55.4008138,28.6588962 L55.4008138,28.7437749 C55.4008138,34.2871358 59.6362831,38.0112142 64.0376985,38.0112142 C68.6465985,38.0112142 72.34186,34.5834703 72.34186,28.7858967 M55.5258446,34.837048 L55.5258446,39.4920403 L53.4910831,39.4920403 L53.4910831,8.60064636 L55.5258446,8.60064636 L55.5258446,22.7345338 C57.3529138,19.899459 60.05146,17.4028405 64.2451831,17.4028405 C69.3523369,17.4028405 74.5427754,21.5919525 74.5427754,28.6169861 L74.5427754,28.7012297 C74.5427754,35.7260516 69.3523369,39.9998307 64.2451831,39.9998307 C60.0101292,39.9998307 57.2696292,37.545334 55.5258446,34.837048" id="Fill-5" fill="#4D4D4F"></path>
            </g>
        </g>
    </g>
</svg>